<?xml version="1.0" encoding="UTF-8" standalone="no"?>
<!-- Created with Inkscape (http://www.inkscape.org/) -->

<svg
   version="1.1"
   id="svg865"
   xml:space="preserve"
   width="700"
   height="700"
   viewBox="0 0 700 700"
   xmlns="http://www.w3.org/2000/svg"
   xmlns:svg="http://www.w3.org/2000/svg"><defs
     id="defs869"><clipPath
       clipPathUnits="userSpaceOnUse"
       id="clipPath893"><path
         d="m 13461.2,8061.1 c -231.9,1505.28 1243.4,2154.9 315.7,3817.2 -102.6,-1512.4 -1505.9,-1723.7 -1733.6,-3156 -173.1,-1088.9 532.3,-1774 912.5,-2104 -6.3,-5.2 -13,-11 -19.7,-17 186.5,-98.3 463.5,-190.1 865,-239.3 408.6,-50 900.7,-5 1380.9,131.4 -821.4,44.3 -1579.1,648.3 -1720.8,1567.7 z"
         id="path891" /></clipPath><linearGradient
       x1="0"
       y1="0"
       x2="1"
       y2="0"
       gradientUnits="userSpaceOnUse"
       gradientTransform="matrix(1090.88,-4210.1,-4210.1,-1090.88,12975.5,9884.62)"
       spreadMethod="pad"
       id="linearGradient901"><stop
         style="stop-opacity:1;stop-color:#ffd500"
         offset="0"
         id="stop895" /><stop
         style="stop-opacity:1;stop-color:#ffd500"
         offset="0.17704956"
         id="stop897" /><stop
         style="stop-opacity:1;stop-color:#ff7300"
         offset="1"
         id="stop899" /></linearGradient><clipPath
       clipPathUnits="userSpaceOnUse"
       id="clipPath911"><path
         d="m 15378.9,10542.6 c -236.5,-723.41 -538.9,-1537.81 -305.3,-2194.7 -28.5,682.89 524.7,1257.15 882.2,1488.07 42.3,-27.15 88.8,-51.74 149,-70.37 -50.7,-415.1 48.8,-688.18 211.3,-828 529.8,-329.2 1034.9,505.09 881.7,1237.9 -33.1,-635.53 -952.2,-563.1 -648,340.6 207.7,617 138.9,1100.1 -233.7,1547.3 42.7,-461.1 -69.2,-785.1 -302.3,-695.6 -462.2,177.4 -147.7,466.2 -766.9,1522.9 0.1,-0.1 0.1,-0.2 0.2,-0.3 379.3,-710 397.6,-1535.1 131.8,-2347.8 z"
         id="path909" /></clipPath><linearGradient
       x1="0"
       y1="0"
       x2="1"
       y2="0"
       gradientUnits="userSpaceOnUse"
       gradientTransform="matrix(2082.39,3623.37,3623.37,-2082.39,15453.7,9845.31)"
       spreadMethod="pad"
       id="linearGradient917"><stop
         style="stop-opacity:1;stop-color:#ffd500"
         offset="0"
         id="stop913" /><stop
         style="stop-opacity:1;stop-color:#ff7300"
         offset="1"
         id="stop915" /></linearGradient><clipPath
       clipPathUnits="userSpaceOnUse"
       id="clipPath927"><path
         d="m 17369.5,10165.8 c -63.8,-5.4 -113.7,-6.9 -171.7,9.7 153.2,-732.81 -351.9,-1567.1 -881.7,-1237.9 394.7,-339.6 1161.7,108.79 1053.4,1228.2 z"
         id="path925" /></clipPath><linearGradient
       x1="0"
       y1="0"
       x2="1"
       y2="0"
       gradientUnits="userSpaceOnUse"
       gradientTransform="matrix(285.096,1689.3,1689.3,-285.096,16759.7,8845.9)"
       spreadMethod="pad"
       id="linearGradient935"><stop
         style="stop-opacity:1;stop-color:#f78400"
         offset="0"
         id="stop929" /><stop
         style="stop-opacity:1;stop-color:#f78400"
         offset="0.23396888"
         id="stop931" /><stop
         style="stop-opacity:1;stop-color:#d13400"
         offset="1"
         id="stop933" /></linearGradient><clipPath
       clipPathUnits="userSpaceOnUse"
       id="clipPath945"><path
         d="m 15073.6,8347.9 c 97.1,-272.9 286.5,-518.6 611.8,-719.3 -599.1,559.6 -350.7,1627.76 419.4,2137 -60.2,18.63 -106.7,43.22 -149,70.37 -357.5,-230.92 -910.8,-805.18 -882.2,-1488.07 z"
         id="path943" /></clipPath><linearGradient
       x1="0"
       y1="0"
       x2="1"
       y2="0"
       gradientUnits="userSpaceOnUse"
       gradientTransform="matrix(436.036,2583.67,2583.67,-436.036,15356.9,7761)"
       spreadMethod="pad"
       id="linearGradient953"><stop
         style="stop-opacity:1;stop-color:#f78400"
         offset="0"
         id="stop947" /><stop
         style="stop-opacity:1;stop-color:#f78400"
         offset="0.23396888"
         id="stop949" /><stop
         style="stop-opacity:1;stop-color:#d13400"
         offset="1"
         id="stop951" /></linearGradient><clipPath
       clipPathUnits="userSpaceOnUse"
       id="clipPath963"><path
         d="m 16563.8,7025.1 v -0.1 c 485.2,479.4 825.4,1113.7 935.4,1839.9 35.4,234.36 54.6,858.49 -129.7,1300.9 152.9,-1580.2 -1438.6,-1823.7 -1264.7,-400.2 -770.1,-509.24 -1018.5,-1577.4 -419.4,-2137 -1108.3,683.8 -641.2,1890.09 -306.5,2914 459.7,1406 69.6,2849.2 -1569.9,3668.9 200.7,-1887.9 -2388.6,-1687.8 -2794,-4365 -217,-1433.9 529.7,-2791.1 1755.4,-3414.2 -638.2,425.7 -1144.7,1301.4 -998.4,2283.6 229.9,1543.8 1887.9,1905.1 1937.6,3278.3 1064,-1749 -485.7,-2393.27 -248.4,-3933.1 223.6,-1450.9 1981.2,-2116.9 3102.6,-1036 z"
         id="path961" /></clipPath><linearGradient
       x1="0"
       y1="0"
       x2="1"
       y2="0"
       gradientUnits="userSpaceOnUse"
       gradientTransform="matrix(3452.89,-6011.52,-6011.52,-3452.89,12301.3,12583.4)"
       spreadMethod="pad"
       id="linearGradient971"><stop
         style="stop-opacity:1;stop-color:#ff9100"
         offset="0"
         id="stop965" /><stop
         style="stop-opacity:1;stop-color:#ff9100"
         offset="0.23396888"
         id="stop967" /><stop
         style="stop-opacity:1;stop-color:#bd002e"
         offset="1"
         id="stop969" /></linearGradient><clipPath
       clipPathUnits="userSpaceOnUse"
       id="clipPath981"><path
         d="m 12043.3,8722.3 c 227.7,1432.5 1631.3,1643.6 1733.6,3156.4 -21.1,38 -43.5,76.4 -67.3,115.5 -49.7,-1373.2 -1707.7,-1734.5 -1937.6,-3278.3 -146.3,-982.2 360.2,-1857.9 998.4,-2283.6 0,0 110.4,124.2 185.4,186 -380.2,330 -1085.6,1015.1 -912.5,2104 z"
         id="path979" /></clipPath><linearGradient
       x1="0"
       y1="0"
       x2="1"
       y2="0"
       gradientUnits="userSpaceOnUse"
       gradientTransform="matrix(832.175,4930.95,4930.95,-832.175,12204.4,6723)"
       spreadMethod="pad"
       id="linearGradient989"><stop
         style="stop-opacity:1;stop-color:#f78400"
         offset="0"
         id="stop983" /><stop
         style="stop-opacity:1;stop-color:#f78400"
         offset="0.23396888"
         id="stop985" /><stop
         style="stop-opacity:1;stop-color:#d13400"
         offset="1"
         id="stop987" /></linearGradient></defs><g
     id="g871"
     transform="matrix(1.3333333,0,0,-1.3333333,0,2533.3333)"><g
       id="g14689"
       transform="matrix(0.43943808,0,0,0.43943808,11.867941,1067.2412)"><g
         id="g887"
         transform="matrix(0.1,0,0,0.1,-842.09373,405.45213)"><g
           id="g889"
           clip-path="url(#clipPath893)"><path
             d="m 13461.2,8061.1 c -231.9,1505.28 1243.4,2154.9 315.7,3817.2 -102.6,-1512.4 -1505.9,-1723.7 -1733.6,-3156 -173.1,-1088.9 532.3,-1774 912.5,-2104 -6.3,-5.2 -13,-11 -19.7,-17 186.5,-98.3 463.5,-190.1 865,-239.3 408.6,-50 900.7,-5 1380.9,131.4 -821.4,44.3 -1579.1,648.3 -1720.8,1567.7"
             style="fill:url(#linearGradient901);fill-opacity:1;fill-rule:nonzero;stroke:none"
             id="path903" /></g></g><g
         id="g905"
         transform="matrix(0.1,0,0,0.1,-842.09373,405.45213)"><g
           id="g907"
           clip-path="url(#clipPath911)"><path
             d="m 15378.9,10542.6 c -236.5,-723.41 -538.9,-1537.81 -305.3,-2194.7 -28.5,682.89 524.7,1257.15 882.2,1488.07 42.3,-27.15 88.8,-51.74 149,-70.37 -50.7,-415.1 48.8,-688.18 211.3,-828 529.8,-329.2 1034.9,505.09 881.7,1237.9 -33.1,-635.53 -952.2,-563.1 -648,340.6 207.7,617 138.9,1100.1 -233.7,1547.3 42.7,-461.1 -69.2,-785.1 -302.3,-695.6 -462.2,177.4 -147.7,466.2 -766.9,1522.9 0.1,-0.1 0.1,-0.2 0.2,-0.3 379.3,-710 397.6,-1535.1 131.8,-2347.8"
             style="fill:url(#linearGradient917);fill-opacity:1;fill-rule:nonzero;stroke:none"
             id="path919" /></g></g><g
         id="g921"
         transform="matrix(0.1,0,0,0.1,-842.09373,405.45213)"><g
           id="g923"
           clip-path="url(#clipPath927)"><path
             d="m 17369.5,10165.8 c -63.8,-5.4 -113.7,-6.9 -171.7,9.7 153.2,-732.81 -351.9,-1567.1 -881.7,-1237.9 394.7,-339.6 1161.7,108.79 1053.4,1228.2"
             style="fill:url(#linearGradient935);fill-opacity:1;fill-rule:nonzero;stroke:none"
             id="path937" /></g></g><g
         id="g939"
         transform="matrix(0.1,0,0,0.1,-842.09373,405.45213)"><g
           id="g941"
           clip-path="url(#clipPath945)"><path
             d="m 15073.6,8347.9 c 97.1,-272.9 286.5,-518.6 611.8,-719.3 -599.1,559.6 -350.7,1627.76 419.4,2137 -60.2,18.63 -106.7,43.22 -149,70.37 -357.5,-230.92 -910.8,-805.18 -882.2,-1488.07"
             style="fill:url(#linearGradient953);fill-opacity:1;fill-rule:nonzero;stroke:none"
             id="path955" /></g></g><g
         id="g957"
         transform="matrix(0.1,0,0,0.1,-842.09373,405.45213)"><g
           id="g959"
           clip-path="url(#clipPath963)"><path
             d="m 16563.8,7025.1 v -0.1 c 485.2,479.4 825.4,1113.7 935.4,1839.9 35.4,234.36 54.6,858.49 -129.7,1300.9 152.9,-1580.2 -1438.6,-1823.7 -1264.7,-400.2 -770.1,-509.24 -1018.5,-1577.4 -419.4,-2137 -1108.3,683.8 -641.2,1890.09 -306.5,2914 459.7,1406 69.6,2849.2 -1569.9,3668.9 200.7,-1887.9 -2388.6,-1687.8 -2794,-4365 -217,-1433.9 529.7,-2791.1 1755.4,-3414.2 -638.2,425.7 -1144.7,1301.4 -998.4,2283.6 229.9,1543.8 1887.9,1905.1 1937.6,3278.3 1064,-1749 -485.7,-2393.27 -248.4,-3933.1 223.6,-1450.9 1981.2,-2116.9 3102.6,-1036"
             style="fill:url(#linearGradient971);fill-opacity:1;fill-rule:nonzero;stroke:none"
             id="path973" /></g></g><g
         id="g975"
         transform="matrix(0.1,0,0,0.1,-842.09373,405.45213)"><g
           id="g977"
           clip-path="url(#clipPath981)"><path
             d="m 12043.3,8722.3 c 227.7,1432.5 1631.3,1643.6 1733.6,3156.4 -21.1,38 -43.5,76.4 -67.3,115.5 -49.7,-1373.2 -1707.7,-1734.5 -1937.6,-3278.3 -146.3,-982.2 360.2,-1857.9 998.4,-2283.6 0,0 110.4,124.2 185.4,186 -380.2,330 -1085.6,1015.1 -912.5,2104"
             style="fill:url(#linearGradient989);fill-opacity:1;fill-rule:nonzero;stroke:none"
             id="path991" /></g></g><text
         xml:space="preserve"
         style="font-size:144px;line-height:1.25;font-family:sans-serif;letter-spacing:0px;word-spacing:0px;stroke-width:0.75"
         x="95.919579"
         y="-834.38843"
         id="text3370"
         transform="scale(1,-1)"><tspan
           id="tspan3368"
           style="font-style:normal;font-variant:normal;font-weight:normal;font-stretch:normal;font-size:200px;font-family:Orbitron;-inkscape-font-specification:'Orbitron, Normal';font-variant-ligatures:normal;font-variant-caps:normal;font-variant-numeric:normal;font-variant-east-asian:normal;stroke-width:0.75"
           x="95.919579"
           y="-834.38843">BLAZER</tspan></text></g></g></svg>
